<?xml version="1.0" encoding="utf-8"?>
<!-- Generator: Adobe Illustrator 22.0.1, SVG Export Plug-In . SVG Version: 6.00 Build 0)  -->
<svg version="1.1" id="Capa_1" xmlns="http://www.w3.org/2000/svg" xmlns:xlink="http://www.w3.org/1999/xlink" x="0px" y="0px"
	 viewBox="0 0 28 65.3" style="enable-background:new 0 0 28 65.3;" xml:space="preserve">
<style type="text/css">
	.st0{fill:#5E5E5E;}
</style>
<path class="st0" d="M27.7,50.2c-0.4-0.4-1-0.4-1.4,0L15.3,61.4V1c0-0.5-0.4-1-1-1c-0.5,0-1,0.4-1,1v60.5L1.8,50.2
	c-0.4-0.4-1-0.4-1.4,0c-0.4,0.4-0.4,1,0,1.4l13.2,12.9c0,0,0.1,0.1,0.1,0.1c0.1,0,0.1,0.1,0.2,0.1c0.1,0,0.2,0.1,0.4,0.1
	c0.1,0,0.3,0,0.4-0.1c0.1-0.1,0.2-0.1,0.3-0.2c0,0,0,0,0,0l12.6-12.9C28.1,51.3,28,50.6,27.7,50.2z"/>
</svg>
