<?xml version="1.0" encoding="utf-8"?>
<!-- Generator: Adobe Illustrator 23.0.1, SVG Export Plug-In . SVG Version: 6.00 Build 0)  -->
<svg version="1.1" id="Capa_1" xmlns="http://www.w3.org/2000/svg" xmlns:xlink="http://www.w3.org/1999/xlink" x="0px" y="0px"
	 viewBox="0 0 310.59 394.25" style="enable-background:new 0 0 310.59 394.25;" xml:space="preserve">
<style type="text/css">
	.st0{fill:#04BDD3;}
</style>
<g>
	<path class="st0" d="M288.27,99.2h-75.35V22.33C212.92,10.05,202.87,0,190.59,0H22.33C10.05,0,0,10.05,0,22.33v250.39
		c0,12.28,10.05,22.33,22.33,22.33h75.35v76.88c0,12.28,10.05,22.33,22.33,22.33h168.27c12.28,0,22.33-10.05,22.33-22.33V121.53
		C310.59,109.25,300.55,99.2,288.27,99.2z M19.57,22.33c0-1.47,1.29-2.75,2.75-2.75h168.27c1.47,0,2.75,1.29,2.75,2.75V99.2H120
		c-12.28,0-22.33,10.05-22.33,22.33V229.9h-78.1V22.33z M22.33,275.47c-1.47,0-2.75-1.29-2.75-2.75v-23.24h78.1v26H22.33z
		 M291.02,371.92c0,1.47-1.29,2.75-2.75,2.75H120c-1.47,0-2.75-1.29-2.75-2.75v-23.24h173.77V371.92z M291.02,329.1H117.25V121.53
		c0-1.47,1.29-2.75,2.75-2.75h168.27c1.47,0,2.75,1.29,2.75,2.75V329.1z"/>
	<path class="st0" d="M185.63,134.98h-41.81c-5.24,0-9.52,4.29-9.52,9.52v41.81c0,5.24,4.29,9.52,9.52,9.52h41.81
		c5.24,0,9.52-4.29,9.52-9.52V144.5C195.15,139.26,190.86,134.98,185.63,134.98z M179.49,180.18h-29.54v-29.54h29.54V180.18z"/>
	<path class="st0" d="M87.95,35.77H46.14c-5.24,0-9.52,4.29-9.52,9.52v41.81c0,5.24,4.29,9.52,9.52,9.52h41.81
		c5.24,0,9.52-4.29,9.52-9.52V45.3C97.47,40.06,93.19,35.77,87.95,35.77z M81.81,80.97H52.27V51.43h29.54V80.97z"/>
</g>
</svg>
