<?xml version="1.0" encoding="utf-8"?>
<!-- Generator: Adobe Illustrator 23.0.1, SVG Export Plug-In . SVG Version: 6.00 Build 0)  -->
<svg version="1.1" id="Capa_1" xmlns="http://www.w3.org/2000/svg" xmlns:xlink="http://www.w3.org/1999/xlink" x="0px" y="0px"
	 viewBox="0 0 397.38 347.95" style="enable-background:new 0 0 397.38 347.95;" xml:space="preserve">
<style type="text/css">
	.st0{fill:#04BDD3;}
</style>
<g>
	<path class="st0" d="M362.49,259.39H329.9V226.8c0-5.02-4.07-9.09-9.09-9.09s-9.09,4.07-9.09,9.09v32.59h-32.59
		c-5.02,0-9.09,4.07-9.09,9.09c0,5.02,4.07,9.09,9.09,9.09h32.59v32.59c0,5.02,4.07,9.09,9.09,9.09s9.09-4.07,9.09-9.09v-32.59
		h32.59c5.02,0,9.09-4.07,9.09-9.09C371.58,263.46,367.51,259.39,362.49,259.39z"/>
	<path class="st0" d="M369.28,206.3V39.59C369.28,17.81,351.46,0,329.69,0H39.59C17.81,0,0,17.81,0,39.59v197.06
		c0,21.77,17.81,39.59,39.59,39.59h197.15c4.41,40.33,38.56,71.72,80.07,71.72c44.5,0,80.58-36.08,80.58-80.58
		C397.38,242.93,386.46,221.08,369.28,206.3z M18.18,236.64V39.59c0-11.81,9.6-21.41,21.41-21.41h290.1
		c11.81,0,21.41,9.6,21.41,21.41v154.95c-10.42-4.91-22.01-7.74-34.29-7.74c-7.91,0-15.53,1.19-22.75,3.31l-49.61-45.22l82.59-77.59
		c3.66-3.44,3.84-9.19,0.4-12.85c-3.43-3.65-9.18-3.84-12.85-0.4L206.05,156.01c-11.93,11.21-30.43,11.01-42.11-0.46L60.64,54.18
		c-3.58-3.51-9.33-3.46-12.85,0.12c-3.51,3.58-3.46,9.34,0.12,12.85l80.91,79.4l-80.66,73.53c-3.71,3.38-3.97,9.13-0.59,12.84
		c1.79,1.97,4.25,2.96,6.72,2.96c2.18,0,4.38-0.78,6.12-2.37l81.41-74.21l9.4,9.22c9.47,9.29,21.74,13.96,34.02,13.96
		c11.93,0,23.87-4.4,33.26-13.22l12.66-11.89l44.67,40.72c-21.14,12.53-36.06,34.4-39.01,59.97H39.59
		C27.78,258.05,18.18,248.45,18.18,236.64z M316.81,329.78c-34.41,0-62.4-27.99-62.4-62.4s27.99-62.4,62.4-62.4
		s62.4,27.99,62.4,62.4S351.21,329.78,316.81,329.78z"/>
</g>
</svg>
