<?xml version="1.0" encoding="utf-8"?>
<!-- Generator: Adobe Illustrator 23.0.1, SVG Export Plug-In . SVG Version: 6.00 Build 0)  -->
<svg version="1.1" id="Capa_1" xmlns="http://www.w3.org/2000/svg" xmlns:xlink="http://www.w3.org/1999/xlink" x="0px" y="0px"
	 viewBox="0 0 287.18 382.66" style="enable-background:new 0 0 287.18 382.66;" xml:space="preserve">
<style type="text/css">
	.st0{fill:#04BDD3;}
</style>
<g>
	<path class="st0" d="M240.18,178.76V96.57C240.18,43.32,196.86,0,143.61,0S47.04,43.32,47.04,96.57v82.18
		C20.24,184.55,0,208.5,0,236.97v86.11c0,32.77,26.81,59.58,59.58,59.58H227.6c32.77,0,59.58-26.81,59.58-59.58v-86.11
		C287.18,208.52,266.96,184.58,240.18,178.76z M143.61,19.02c42.76,0,77.55,34.79,77.55,77.55v80.82H66.06V96.57
		C66.06,53.81,100.85,19.02,143.61,19.02z M268.16,323.08c0,22.37-18.2,40.56-40.56,40.56H59.58c-22.37,0-40.56-18.2-40.56-40.56
		v-86.11c0-22.37,18.2-40.56,40.56-40.56H227.6c22.37,0,40.56,18.2,40.56,40.56V323.08z"/>
	<path class="st0" d="M145.34,213.56c-23.21,0-42.02,18.81-42.02,42.02c0,11.68,4.82,22.19,12.52,29.79v22.71
		c0,16.27,13.23,29.5,29.5,29.5c16.27,0,29.5-13.23,29.5-29.5v-22.72c7.7-7.6,12.52-18.11,12.52-29.78
		C187.36,232.37,168.55,213.56,145.34,213.56z M158.77,275.09c-1.3,0.89-2.16,2.28-2.16,3.86l0.02,29.13
		c0,6.22-5.06,11.28-11.28,11.28c-6.22,0-11.28-5.06-11.28-11.28v-29.13c0-1.59-0.87-2.98-2.17-3.88
		c-8.08-5.56-12.62-15.87-9.19-26.97c2.19-7.11,7.94-12.91,15.04-15.14c16.34-5.12,31.41,7.02,31.41,22.61
		C169.14,263.7,165,270.81,158.77,275.09z"/>
</g>
</svg>
