<?xml version="1.0" encoding="utf-8"?>
<!-- Generator: Adobe Illustrator 23.0.1, SVG Export Plug-In . SVG Version: 6.00 Build 0)  -->
<svg version="1.1" id="Capa_1" xmlns="http://www.w3.org/2000/svg" xmlns:xlink="http://www.w3.org/1999/xlink" x="0px" y="0px"
	 viewBox="0 0 385.03 352.92" style="enable-background:new 0 0 385.03 352.92;" xml:space="preserve">
<style type="text/css">
	.st0{fill:#04BDD3;}
</style>
<g>
	<path class="st0" d="M379.56,266.15L356.38,62.87C351.7,27.03,320.9,0,284.75,0H95C57.94,0,27.05,27.79,23.15,64.69L1.64,277.06
		C0.61,281.34,0,285.79,0,290.38v5.2c0,31.54,25.81,57.35,57.35,57.35h270.34c31.54,0,57.35-25.81,57.35-57.35v-5.2
		C385.03,281.72,383.03,273.53,379.56,266.15z M42.15,66.65C45.01,39.54,67.73,19.1,95,19.1h189.76c26.59,0,49.25,19.88,52.67,46.09
		l20.1,176.35c-8.72-5.36-18.92-8.51-29.84-8.51H57.35c-12.33,0-23.76,3.98-33.14,10.67L42.15,66.65z M365.94,295.57
		c0,21.09-17.16,38.25-38.25,38.25H57.35c-21.09,0-38.25-17.16-38.25-38.25v-5.2c0-21.09,17.16-38.25,38.25-38.25h270.34
		c21.09,0,38.25,17.16,38.25,38.25V295.57z"/>
	<path class="st0" d="M314.35,269.82c-14.04,0-25.43,11.38-25.43,25.43s11.38,25.43,25.43,25.43c14.04,0,25.43-11.38,25.43-25.43
		S328.39,269.82,314.35,269.82z M314.35,305.39c-5.6,0-10.15-4.55-10.15-10.15s4.55-10.15,10.15-10.15s10.15,4.55,10.15,10.15
		S319.95,305.39,314.35,305.39z"/>
	<path class="st0" d="M274.97,153.31H125.06c-4.22,0-7.64,3.42-7.64,7.64s3.42,7.64,7.64,7.64h149.91c4.22,0,7.64-3.42,7.64-7.64
		S279.19,153.31,274.97,153.31z"/>
	<path class="st0" d="M129.38,206.6c1.48,1.44,3.4,2.16,5.32,2.16c2,0,3.99-0.78,5.48-2.32c2.94-3.03,2.86-7.87-0.16-10.8
		l-32.96-31.95c-1.01-0.98-1.16-2.13-1.16-2.74s0.15-1.76,1.16-2.74l32.96-31.95c3.03-2.94,3.1-7.77,0.16-10.8
		c-2.93-3.03-7.77-3.1-10.8-0.16l-32.96,31.95c-3.74,3.63-5.8,8.49-5.8,13.7s2.06,10.08,5.8,13.7L129.38,206.6z"/>
	<path class="st0" d="M105.91,105.46h149.91c4.22,0,7.64-3.42,7.64-7.64c0-4.22-3.42-7.64-7.64-7.64H105.91
		c-4.22,0-7.64,3.42-7.64,7.64C98.27,102.04,101.69,105.46,105.91,105.46z"/>
	<path class="st0" d="M273.81,95.08c1.01,0.98,1.16,2.13,1.16,2.74c0,0.6-0.15,1.76-1.16,2.74l-32.96,31.95
		c-3.03,2.94-3.1,7.77-0.16,10.8c1.5,1.54,3.49,2.32,5.48,2.32c1.92,0,3.83-0.72,5.32-2.16l32.96-31.95c3.74-3.63,5.8-8.49,5.8-13.7
		c0-5.21-2.06-10.08-5.8-13.7L251.5,52.16c-3.03-2.94-7.87-2.86-10.8,0.16c-2.94,3.03-2.86,7.87,0.16,10.8L273.81,95.08z"/>
</g>
</svg>
