<?xml version="1.0" encoding="utf-8"?>
<!-- Generator: Adobe Illustrator 23.0.1, SVG Export Plug-In . SVG Version: 6.00 Build 0)  -->
<svg version="1.1" id="Capa_1" xmlns="http://www.w3.org/2000/svg" xmlns:xlink="http://www.w3.org/1999/xlink" x="0px" y="0px"
	 viewBox="0 0 392.36 278.08" style="enable-background:new 0 0 392.36 278.08;" xml:space="preserve">
<style type="text/css">
	.st0{fill:#04BDD3;}
</style>
<g>
	<path class="st0" d="M357.27,153.59c0.58-5.14,0.94-10.34,0.94-15.63C358.21,61.77,296.45,0,220.25,0
		C155.21,0,100.83,45.07,86.26,105.63c-0.01,0-0.02,0-0.04,0C38.6,105.63,0,144.24,0,191.86c0,46.33,36.58,84.02,82.42,86.03
		l-0.12,0.19h243.96c36.51,0,66.11-29.6,66.11-66.11C392.36,186.67,378.14,164.71,357.27,153.59z M326.25,258.7H87.23l-3.97-0.17
		c-35.82-1.57-63.88-30.85-63.88-66.67c0-36.69,29.71-66.57,66.34-66.84h0.54h15.27l3.57-14.85
		c12.86-53.45,60.21-90.79,115.15-90.79c65.38,0,118.58,53.19,118.58,118.58c0,4.15-0.27,8.55-0.82,13.46l-1.48,13.09l11.63,6.19
		c15.31,8.15,24.82,23.97,24.82,41.27C372.98,237.73,352.02,258.7,326.25,258.7z"/>
	<path class="st0" d="M263.24,133.91h-0.83v-17.24c0-22.38-18.21-40.6-40.6-40.6c-22.39,0-40.6,18.21-40.6,40.6v17.24h-0.92
		c-7.67,0-13.94,6.27-13.94,13.94v64.1c0,7.67,6.27,13.94,13.94,13.94h82.94c7.67,0,13.94-6.27,13.94-13.94v-64.1
		C277.17,140.18,270.9,133.91,263.24,133.91z M221.81,91.58c13.84,0,25.09,11.25,25.09,25.09v17.24h-50.19v-17.24
		C196.72,102.83,207.98,91.58,221.81,91.58z M261.67,210.37h-79.81v-60.96h8.09h71.71V210.37z"/>
	<path class="st0" d="M209.44,203.32c1.48,1.34,3.35,2.01,5.21,2.01c2.03,0,4.05-0.79,5.57-2.36l30.13-31.12
		c2.98-3.08,2.9-7.99-0.17-10.96c-3.08-2.98-8-2.9-10.96,0.17L214.3,186.8l-7.78-7.05c-3.17-2.88-8.08-2.63-10.95,0.53
		c-2.88,3.17-2.64,8.07,0.53,10.95L209.44,203.32z"/>
</g>
</svg>
