<?xml version="1.0" encoding="utf-8"?>
<!-- Generator: Adobe Illustrator 23.0.1, SVG Export Plug-In . SVG Version: 6.00 Build 0)  -->
<svg version="1.1" id="Capa_1" xmlns="http://www.w3.org/2000/svg" xmlns:xlink="http://www.w3.org/1999/xlink" x="0px" y="0px"
	 viewBox="0 0 325.96 381.76" style="enable-background:new 0 0 325.96 381.76;" xml:space="preserve">
<style type="text/css">
	.st0{fill:#04BDD3;}
</style>
<g>
	<path class="st0" d="M322.66,56.11c-2.09-1.78-4.84-2.56-7.58-2.12c-1.07,0.17-107.96,16.54-149.45-49.64
		c-1.81-2.9-5.13-4.55-8.51-4.33c-3.42,0.19-6.49,2.29-7.96,5.38c-0.23,0.48-24.5,48.47-139.77,48.47C4.2,53.87,0,58.07,0,63.26
		v155.52c0,89.87,73.11,162.98,162.98,162.98s162.98-73.11,162.98-162.98V63.26C325.96,60.51,324.75,57.9,322.66,56.11z
		 M307.19,218.78c0,79.52-64.69,144.2-144.21,144.2c-79.52,0-144.2-64.69-144.2-144.2V72.54c86.3-1.92,124.04-30.22,138.93-47.07
		c42.58,52.46,120.68,50.93,149.49,48.34V218.78z"/>
	<path class="st0" d="M165.43,207.17V62.12c0-3.71-2.2-7.07-5.6-8.58c-3.4-1.49-7.37-0.85-10.12,1.65
		c-0.38,0.35-38.95,34.69-109.86,34.69c-5.18,0-9.39,4.2-9.39,9.39v107.9c0,5.18,4.2,9.39,9.39,9.39h116.2
		C161.23,216.55,165.43,212.35,165.43,207.17z M146.66,197.78H49.24v-89.31c46.8-1.83,79.57-17.04,97.42-28.04V197.78z"/>
	<path class="st0" d="M277.78,224.65H170.49c-5.18,0-9.39,4.2-9.39,9.39v103.55c0,5.18,4.2,9.39,9.39,9.39
		c85.84,0,115.15-106,116.35-110.51c0.76-2.82,0.15-5.83-1.62-8.14C283.44,226.01,280.69,224.65,277.78,224.65z M179.88,327.64
		v-84.21h84.85C255.54,267.73,229.76,321.54,179.88,327.64z"/>
</g>
</svg>
