<?xml version="1.0" encoding="utf-8"?>
<!-- Generator: Adobe Illustrator 22.0.1, SVG Export Plug-In . SVG Version: 6.00 Build 0)  -->
<svg version="1.1" id="Capa_1" xmlns="http://www.w3.org/2000/svg" xmlns:xlink="http://www.w3.org/1999/xlink" x="0px" y="0px"
	 viewBox="0 0 85.1 50" style="enable-background:new 0 0 85.1 50;" xml:space="preserve">
<style type="text/css">
	.st0{fill:#FFFFFF;}
</style>
<g>
	<g>
		<path class="st0" d="M58.5,2.8c-0.2,1-0.5,2.1-0.8,3.3C59,6,60.2,5.7,61.5,5.5c1.3-0.3,2.6-0.6,3.8-1c1.2-0.4,2.3-0.8,3.4-1.2
			c1-0.4,1.9-0.9,2.7-1.3c0.9-0.5,1.6-1.1,2.1-1.7c0.1-0.1,0.2-0.3,0.3-0.4H58.4c0,0.1,0.1,0.2,0.1,0.3C58.7,1,58.7,1.8,58.5,2.8z"
			/>
		<path class="st0" d="M28.2,40.8c-0.8-0.3-1.7-0.6-2.5-0.9c-1.6-0.5-3.3-1-5.1-1.3c-1.8-0.4-3.5-0.4-5.2,0
			c-0.7,0.2-1.4,0.4-1.9,0.8c-0.1,0.1-0.2,0.2-0.3,0.2c-0.2,0.1-0.4,0-0.5-0.3c-0.3-0.7-0.4-1.4-0.3-2.1c0-0.6,0.2-1.2,0.5-1.7
			s0.7-0.9,1.2-1.2s1-0.6,1.6-0.8s1.2-0.3,1.8-0.4c-0.1-1.5,0-3.3,0.4-5.3s0.9-4.1,1.5-6.2c0.6-2.2,1.4-4.3,2.1-6.5
			c0.8-2.2,1.6-4.1,2.3-5.9c0.8-1.8,1.4-3.4,2-4.7s1-2.2,1.2-2.7c0.3-0.7,0.5-1.3,0.7-1.8h-4c-0.6,0.6-1.2,1.4-1.9,2.2
			c-1.1,1.4-2.5,3.3-4,5.7c-1.5,2.2-2.6,4.2-3.4,6.1c-0.8,1.8-1.3,3.4-1.5,4.8c-0.3,1.4-0.4,2.5-0.4,3.4s0.1,1.5,0.2,1.8
			c0,0.1,0,0.2-0.1,0.3c0,0-0.1,0.1-0.2,0.1c-0.4,0-0.9-0.1-1.6-0.4c-0.7-0.3-1.3-0.8-1.9-1.7c-0.5-0.9-0.8-2.1-0.8-3.8
			c0-1.6,0.5-3.9,1.5-6.8c1.1-3.3,2.5-6,4-8.3C14.4,2.1,15.3,1,16.3,0H0v42.6h32.4c-0.6-0.3-1.2-0.5-1.8-0.8
			C29.8,41.5,29,41.1,28.2,40.8z"/>
		<path class="st0" d="M85.1,0h-7.8c0.1,0.6,0,1.2-0.2,1.7c-0.2,0.6-0.6,1.3-1.1,2C75,5,73.8,6,72.2,6.8c-1.6,0.8-3.2,1.4-5,1.8
			c-1.8,0.4-3.6,0.7-5.5,0.8s-3.6,0.1-5.3,0.1c-0.4,1-0.7,2-1.1,3.1c-0.3,1.1-0.7,2.1-1,3.2c-0.3,1-0.6,2-0.8,2.9
			c-0.2,0.9-0.4,1.7-0.6,2.5c-0.2,1-0.4,2-0.6,2.8c-0.2,0.8-0.3,1.5-0.4,2.1c-0.1,0.5-0.1,0.9-0.2,1.4c-0.1,0.4-0.1,0.8-0.2,1.2
			c0,0.4,0,0.8,0,1.2c0,0.6,0.1,1,0.3,1.1c0.1,0.1,0.2,0.2,0.3,0.2c0.3,0.1,0.6,0,0.9-0.2c0.3-0.2,0.6-0.4,0.9-0.8
			c0.3-0.3,0.6-0.8,0.8-1.2c0.3-0.5,0.5-1,0.7-1.5c0.3-0.6,0.5-1.2,0.7-1.9c0.1-1.5,0.4-2.9,0.8-4.2c0.5-1.6,1.2-3,1.9-4.1
			c0.8-1.1,1.6-1.9,2.5-2.5S63.1,14,64,14c0.9,0.1,1.7,0.3,2.1,0.7c0.5,0.4,0.8,0.9,1.1,1.3c0.3,0.6,0.4,1.2,0.4,1.9
			c0,0.1,0,0.3-0.1,0.4s-0.1,0.2-0.2,0.3c-0.1,0.1-0.2,0.1-0.4,0.1c-0.3,0-0.6,0.1-1,0.3c-0.4,0.2-0.8,0.5-1.3,1s-0.9,1.1-1.4,2
			c-0.5,0.8-0.9,1.9-1.3,3.2c-0.3,1.2-0.6,2.2-0.7,3.1c-0.1,0.8-0.2,1.5-0.2,2.2s0.2,1,0.6,1.1c0.3,0,0.6-0.2,1-0.8
			c0.4-0.5,0.7-1.2,1-2s0.6-1.7,0.9-2.6c0.3-0.9,0.5-1.7,0.7-2.5c0.1-0.6,0.2-1.1,0.3-1.6c0.1-0.4,0.1-0.7,0.2-0.9
			c0.1-0.4,0.2-0.7,0.4-0.9c0.2-0.2,0.4-0.3,0.7-0.4c0.3-0.1,0.6-0.1,0.9-0.1c1.2,0.1,2.2,0.6,3.1,1.3c0.5,0.4,0.8,1,0.8,1.7
			s0,1.5-0.2,2.2c-0.2,0.8-0.4,1.5-0.6,2.3c-0.3,0.8-0.4,1.4-0.5,1.8c-0.1,0.5-0.1,0.8-0.1,1.1c0,0.3,0.1,0.5,0.2,0.6
			s0.2,0.2,0.4,0.3c0.3,0.1,0.5,0,0.8-0.2s0.5-0.4,0.8-0.7c0.3-0.3,0.5-0.7,0.8-1.2c0.2-0.5,0.5-0.9,0.7-1.4
			c0.5-1.1,0.9-2.4,1.4-3.9c0.1-0.2,0.2-0.5,0.3-0.9c0.1-0.4,0.3-0.5,0.6-0.5c0.4,0.1,0.6,0.2,0.8,0.5c0.1,0.3,0.2,0.6,0.3,0.9
			c0,0.4,0,0.8-0.1,1.2c-0.1,0.4-0.2,0.9-0.4,1.6c-0.2,0.7-0.4,1.4-0.7,2.1c-0.3,0.8-0.7,1.5-1.1,2.3s-1,1.5-1.6,2.1s-1.3,1.1-2,1.5
			c-0.8,0.4-1.6,0.6-2.5,0.5c-1-0.1-1.8-0.5-2.3-1.2c-0.5-0.8-0.8-1.7-1-2.8c-0.2,0.4-0.5,0.8-0.8,1.3s-0.7,0.9-1.1,1.3
			c-0.4,0.4-0.9,0.7-1.4,1s-1.1,0.3-1.7,0.3c-0.6,0-1.1-0.2-1.6-0.5c-0.4-0.3-0.8-0.6-1.1-1s-0.5-0.8-0.7-1.3
			c-0.2-0.4-0.3-0.8-0.4-1.2c-0.5,0.8-1,1.6-1.7,2.2c-0.6,0.7-1.4,1.2-2.2,1.6c-0.8,0.4-1.7,0.6-2.7,0.6c-0.8,0-1.4-0.2-1.8-0.6
			c-0.5-0.4-0.8-0.9-1.1-1.5c-0.2-0.3-0.3-0.7-0.4-1.1c-0.3,0.4-0.6,0.8-1,1.2c-0.6,0.6-1.3,1.1-2,1.5c-0.8,0.4-1.6,0.6-2.5,0.5
			c-1-0.1-1.8-0.5-2.3-1.2c-0.5-0.8-0.8-1.7-1-2.8c-0.2,0.4-0.5,0.8-0.8,1.3s-0.7,0.9-1.1,1.3c-0.4,0.4-0.9,0.7-1.4,1
			s-1.1,0.3-1.7,0.3c-0.6,0-1.1-0.2-1.6-0.5c-0.4-0.3-0.8-0.6-1.1-1c-0.3-0.4-0.5-0.8-0.7-1.3s-0.3-1-0.4-1.5
			c-0.2-1.2-0.3-2.5-0.2-4c0.1-2,0.4-3.8,0.9-5.4s1.2-3,1.9-4.1c0.8-1.1,1.6-1.9,2.5-2.5s1.8-0.8,2.7-0.8c0.9,0.1,1.7,0.3,2.1,0.7
			c0.5,0.4,0.8,0.9,1.1,1.3c0.3,0.6,0.4,1.2,0.4,1.9c0,0.1,0,0.3-0.1,0.4s-0.1,0.2-0.2,0.3c-0.1,0.1-0.2,0.1-0.4,0.1
			c-0.3,0-0.6,0.1-1,0.3c-0.4,0.2-0.8,0.5-1.3,1s-0.9,1.1-1.4,2c-0.5,0.8-0.9,1.9-1.3,3.2c-0.3,1.2-0.6,2.2-0.7,3.1
			c-0.1,0.8-0.2,1.5-0.2,2.2s0.2,1,0.6,1.1c0.3,0,0.6-0.2,1-0.8c0.4-0.5,0.7-1.2,1-2s0.6-1.7,0.9-2.6c0.3-0.9,0.5-1.7,0.7-2.5
			c0.1-0.6,0.2-1.1,0.3-1.6c0.1-0.4,0.1-0.7,0.2-0.9c0.1-0.4,0.2-0.7,0.4-0.9c0.2-0.2,0.4-0.3,0.7-0.4c-0.2,0,0.1,0,0.4,0
			c1.2,0.1,2.2,0.6,3.1,1.3c0.5,0.4,0.8,1,0.8,1.7s0,1.5-0.2,2.2c-0.2,0.8-0.4,1.5-0.6,2.3c-0.3,0.8-0.4,1.4-0.5,1.8
			c-0.1,0.5-0.1,0.8-0.1,1.1c0,0.3,0.1,0.5,0.2,0.6c0.1,0.1,0.2,0.2,0.4,0.3c0.3,0.1,0.5,0,0.8-0.2s0.5-0.4,0.8-0.7
			c0.3-0.3,0.5-0.7,0.8-1.2c0.2-0.4,0.4-0.8,0.6-1.2c0-0.7,0-1.5,0.1-2.3c0.1-1,0.2-1.9,0.4-2.7c0.1-1,0.3-2,0.5-3
			c0.4-2.4,0.9-4.5,1.4-6.4s0.9-3.6,1.3-5.1C47,8.2,45.4,6.8,45,6.4c-0.4-0.3-0.7-0.7-0.8-1.1C44,5,44,4.6,44,4.2s0.1-0.8,0.3-1.1
			c0,0,0-0.1,0.1-0.1c0,0,0.1-0.1,0.3-0.2c0.1,0,0.2,0.1,0.3,0.3c0.3,0.4,1.7,1.7,3.9,2.6c0.5,0.2,1,0.3,1.5,0.3
			c0.2-1.3,0.3-2.4,0.2-3.1c0-0.7-0.1-1.3-0.3-1.6c-0.1-0.2-0.1-0.3-0.1-0.5c0-0.1,0-0.2,0.1-0.3c0-0.1,0.1-0.2,0.2-0.2
			c0.2-0.1,0.4-0.2,0.6-0.3H32.5c0,0.7,0,1.5-0.1,2.3c-0.2,1.1-0.4,2.1-0.6,3.1c-0.3,1-0.5,1.8-0.8,2.6s-0.5,1.3-0.6,1.6
			s-0.4,0.9-0.8,2c-0.4,1-0.9,2.3-1.5,3.8s-1.2,3.1-1.8,4.9c-0.6,1.7-1.2,3.5-1.7,5.2s-0.9,3.3-1.2,4.7c-0.3,1.4-0.4,2.6-0.3,3.4
			c1.2,0.3,2.5,0.7,3.8,1.1c1.5,0.5,3,1,4.5,1.5s3,1.1,4.5,1.6s3,1,4.6,1.4c1.5,0.4,3.1,0.7,4.6,0.9c0.7,0.1,1.5,0.2,2.3,0.2
			s1.5-0.1,2.2-0.5c0.3-0.1,0.5-0.2,0.7-0.1c0.1,0,0.2,0.1,0.2,0.2c0.3,0.6,0.6,1.2,0.9,1.9c0.1,0.3,0.2,0.7,0.3,1h33.6V0H85.1z"/>
	</g>
	<g>
		<path class="st0" d="M0,45.7c0.3-0.1,0.7-0.1,1.2-0.1c0.8,0,1.4,0.2,1.7,0.5c0.4,0.3,0.6,0.8,0.6,1.5s-0.2,1.3-0.6,1.7
			C2.5,49.8,1.8,50,1,50c-0.4,0-0.7,0-1-0.1V45.7z M0.6,49.5c0.1,0,0.3,0,0.6,0c1.2,0,1.8-0.7,1.8-1.8c0-1-0.6-1.6-1.7-1.6
			c-0.3,0-0.5,0-0.6,0.1L0.6,49.5L0.6,49.5z"/>
		<path class="st0" d="M7.9,45.7V50H7.4v-4.3H7.9z"/>
		<path class="st0" d="M15.3,49.7C15.1,49.8,14.6,50,14,50s-1.2-0.2-1.6-0.6c-0.4-0.4-0.6-0.9-0.6-1.6c0-1.3,0.9-2.2,2.3-2.2
			c0.5,0,0.9,0.1,1.1,0.2L15,46.3c-0.2-0.1-0.5-0.2-0.9-0.2c-1,0-1.7,0.6-1.7,1.7c0,1.1,0.7,1.7,1.6,1.7c0.4,0,0.6-0.1,0.7-0.1v-1.3
			h-0.9v-0.4h1.4L15.3,49.7L15.3,49.7z"/>
		<path class="st0" d="M19.9,45.7V50h-0.6v-4.3H19.9z"/>
		<path class="st0" d="M24.8,46.1h-1.3v-0.5h3.2v0.5h-1.3v3.8h-0.6C24.8,49.9,24.8,46.1,24.8,46.1z"/>
		<path class="st0" d="M30.5,48.6l-0.4,1.3h-0.6l1.4-4.3h0.7l1.5,4.3h-0.6L32,48.6H30.5z M31.9,48.2L31.5,47
			c-0.1-0.3-0.2-0.5-0.2-0.8l0,0c-0.1,0.3-0.1,0.5-0.2,0.8l-0.4,1.2H31.9z"/>
		<path class="st0" d="M36.8,45.7h0.6v3.8h1.8V50h-2.4C36.8,50,36.8,45.7,36.8,45.7z"/>
		<path class="st0" d="M48.2,48.6l-0.4,1.3h-0.6l1.4-4.3h0.7l1.5,4.3h-0.6l-0.5-1.3H48.2z M49.6,48.2L49.2,47
			c-0.1-0.3-0.2-0.5-0.2-0.8l0,0c-0.1,0.3-0.1,0.5-0.2,0.8l-0.4,1.2H49.6z"/>
		<path class="st0" d="M57.7,49.7C57.4,49.8,57,50,56.4,50s-1.2-0.2-1.6-0.6c-0.4-0.4-0.6-0.9-0.6-1.6c0-1.3,0.9-2.2,2.3-2.2
			c0.5,0,0.9,0.1,1.1,0.2l-0.1,0.4C57.3,46.1,57,46,56.6,46c-1,0-1.7,0.6-1.7,1.7c0,1.1,0.7,1.7,1.6,1.7c0.4,0,0.6-0.1,0.7-0.1V48
			h-0.9v-0.4h1.4C57.7,47.6,57.7,49.7,57.7,49.7z"/>
		<path class="st0" d="M63.9,47.9h-1.7v1.5H64v0.5h-2.4v-4.3H64v0.5h-1.8v1.3h1.7V47.9z"/>
		<path class="st0" d="M68,49.9v-4.3h0.6l1.4,2.2c0.3,0.5,0.6,0.9,0.8,1.4l0,0c-0.1-0.6-0.1-1.1-0.1-1.8v-1.8h0.5v4.3h-0.6l-1.4-2.2
			c-0.3-0.5-0.6-1-0.8-1.4l0,0c0,0.5,0,1.1,0,1.8v1.8H68z"/>
		<path class="st0" d="M78.3,49.8c-0.2,0.1-0.6,0.2-1.1,0.2C76,50,75,49.2,75,47.8c0-1.3,0.9-2.2,2.2-2.2c0.5,0,0.9,0.1,1,0.2
			l-0.1,0.4c-0.2-0.1-0.5-0.2-0.9-0.2c-1,0-1.7,0.6-1.7,1.8c0,1,0.6,1.7,1.6,1.7c0.3,0,0.7-0.1,0.9-0.2L78.3,49.8z"/>
		<path class="st0" d="M83.1,49.9v-1.8l-1.3-2.5h0.6l0.6,1.2c0.2,0.3,0.3,0.6,0.4,0.9l0,0c0.1-0.3,0.3-0.6,0.4-0.9l0.6-1.2H85
			L83.6,48v1.8L83.1,49.9L83.1,49.9z"/>
	</g>
</g>
</svg>
