<?xml version="1.0" encoding="utf-8"?>
<!-- Generator: Adobe Illustrator 22.0.1, SVG Export Plug-In . SVG Version: 6.00 Build 0)  -->
<svg version="1.1" id="Capa_1" xmlns="http://www.w3.org/2000/svg" xmlns:xlink="http://www.w3.org/1999/xlink" x="0px" y="0px"
	 viewBox="0 0 109.4 109.4" style="enable-background:new 0 0 109.4 109.4;" xml:space="preserve">
<style type="text/css">
	.st0{fill:#04BDD3;}
</style>
<g>
	<path class="st0" d="M95.7,18.5c-0.1-0.1-1.3-1.4-1.3-1.4c-0.4-0.5-0.9-0.9-1.4-1.4l0,0l-0.3-0.3c-0.5-0.5-1.2-0.5-1.6,0
		c-0.5,0.5-0.5,1.2,0,1.6l0.7,0.7l0,0c9.4,9.5,15.2,22.5,15.2,36.9c0,28.9-23.5,52.4-52.4,52.4S2.3,83.6,2.3,54.7S25.8,2.3,54.7,2.3
		c7.9,0,15.4,1.8,22.1,4.9L80,8.8l0,0l0,0L80.3,9c0.2,0.1,0.3,0.1,0.5,0.1c0.4,0,0.8-0.2,1-0.6c0.3-0.6,0.1-1.3-0.5-1.6l0,0
		c-7.9-4.4-17-7-26.7-7C24.5,0,0,24.5,0,54.7s24.5,54.7,54.7,54.7s54.7-24.5,54.7-54.7C109.4,40.8,104.2,28.2,95.7,18.5z"/>
	<path class="st0" d="M47.1,77.1c0.4,0.6,1.2,0.7,1.8,0.3L80,55.7c0.3-0.2,0.5-0.6,0.5-1s-0.2-0.8-0.5-1L40,25.8
		c-0.4-0.3-0.9-0.3-1.3-0.1c-0.4,0.2-0.7,0.6-0.7,1.1v55.7c0,0.7,0.6,1.3,1.3,1.3s1.3-0.6,1.3-1.3V29.3L77,54.7L47.4,75.3
		C46.8,75.7,46.7,76.5,47.1,77.1z"/>
</g>
</svg>
